<svg width="18" height="18" viewBox="0 0 18 18" fill="none" xmlns="http://www.w3.org/2000/svg">
<path d="M13.9413 4.41737C13.0188 3.98987 12.0363 3.67487 11.0013 3.49487C10.8738 3.71987 10.7238 4.02737 10.6263 4.27487C9.53126 4.10987 8.44376 4.10987 7.37127 4.27487C7.26627 4.02737 7.11627 3.71987 6.98877 3.49487C5.95377 3.67487 4.97127 3.98987 4.04877 4.41737C2.18877 7.22237 1.68627 9.9599 1.93377 12.6524C3.17127 13.5749 4.36377 14.1299 5.54127 14.4974C5.83377 14.0999 6.08877 13.6724 6.31377 13.2299C5.88627 13.0724 5.48127 12.8699 5.09877 12.6374C5.20377 12.5624 5.30127 12.4799 5.39877 12.4049C7.74626 13.4999 10.2888 13.4999 12.6063 12.4049C12.7038 12.4874 12.8013 12.5624 12.9063 12.6374C12.5238 12.8699 12.1113 13.0649 11.6913 13.2299C11.9163 13.6724 12.1713 14.0999 12.4638 14.4974C13.6413 14.1299 14.8413 13.5749 16.0713 12.6524C16.3638 9.5249 15.5688 6.81737 13.9563 4.41737H13.9413ZM6.62877 11.0024C5.92377 11.0024 5.34627 10.3499 5.34627 9.5474C5.34627 8.7449 5.90877 8.0924 6.62877 8.0924C7.34877 8.0924 7.91876 8.7449 7.91126 9.5474C7.91126 10.3424 7.34877 11.0024 6.62877 11.0024ZM11.3613 11.0024C10.6563 11.0024 10.0788 10.3499 10.0788 9.5474C10.0788 8.7449 10.6413 8.0924 11.3613 8.0924C12.0813 8.0924 12.6513 8.7449 12.6438 9.5474C12.6438 10.3424 12.0813 11.0024 11.3613 11.0024Z" fill="white"/>
</svg>
